<svg xmlns="http://www.w3.org/2000/svg" version="1.1" xmlns:xlink="http://www.w3.org/1999/xlink" xmlns:svgjs="http://svgjs.com/svgjs" width="1440" height="560" preserveAspectRatio="none" viewBox="0 0 1440 560"><g mask="url(&quot;#SvgjsMask1031&quot;)" fill="none"><rect width="1440" height="560" x="0" y="0" fill="rgba(250, 209, 44, 0.5)"></rect><path d="M65.46 104.18L130.42 141.68L130.42 216.68L65.46 254.18L0.51 216.68L0.51 141.68zM65.46 329.18L130.42 366.68L130.42 441.68L65.46 479.18L0.51 441.68L0.51 366.68zM65.46 554.18L130.42 591.68L130.42 666.68L65.46 704.18L0.51 666.68L0.51 591.68zM130.42 216.68L195.37 254.18L195.37 329.18L130.42 366.68L65.46 329.18L65.46 254.18zM260.32 -8.32L325.28 29.18L325.28 104.18L260.32 141.68L195.37 104.18L195.37 29.18zM325.28 329.18L390.23 366.68L390.23 441.68L325.28 479.18L260.32 441.68L260.32 366.68zM455.19 104.18L520.14 141.68L520.14 216.68L455.19 254.18L390.23 216.68L390.23 141.68zM455.19 329.18L520.14 366.68L520.14 441.68L455.19 479.18L390.23 441.68L390.23 366.68zM520.14 -8.32L585.09 29.18L585.09 104.18L520.14 141.68L455.19 104.18L455.19 29.18zM585.09 104.18L650.05 141.68L650.05 216.68L585.09 254.18L520.14 216.68L520.14 141.68zM520.14 441.68L585.09 479.18L585.09 554.18L520.14 591.68L455.19 554.18L455.19 479.18zM650.05 -8.32L715 29.18L715 104.18L650.05 141.68L585.09 104.18L585.09 29.18zM779.95 216.68L844.91 254.18L844.91 329.18L779.95 366.68L715 329.18L715 254.18zM844.91 329.18L909.86 366.68L909.86 441.68L844.91 479.18L779.95 441.68L779.95 366.68zM779.95 441.68L844.91 479.18L844.91 554.18L779.95 591.68L715 554.18L715 479.18zM844.91 554.18L909.86 591.68L909.86 666.68L844.91 704.18L779.95 666.68L779.95 591.68zM909.86 -8.32L974.82 29.18L974.82 104.18L909.86 141.68L844.91 104.18L844.91 29.18zM909.86 216.68L974.82 254.18L974.82 329.18L909.86 366.68L844.91 329.18L844.91 254.18zM974.82 329.18L1039.77 366.68L1039.77 441.68L974.82 479.18L909.86 441.68L909.86 366.68zM1104.72 329.18L1169.68 366.68L1169.68 441.68L1104.72 479.18L1039.77 441.68L1039.77 366.68zM1234.63 329.18L1299.58 366.68L1299.58 441.68L1234.63 479.18L1169.68 441.68L1169.68 366.68zM1364.54 104.18L1429.49 141.68L1429.49 216.68L1364.54 254.18L1299.59 216.68L1299.59 141.68zM1299.59 216.68L1364.54 254.18L1364.54 329.18L1299.59 366.68L1234.63 329.18L1234.63 254.18zM1429.49 -8.32L1494.45 29.18L1494.45 104.18L1429.49 141.68L1364.54 104.18L1364.54 29.18zM1494.45 104.18L1559.4 141.68L1559.4 216.68L1494.45 254.18L1429.49 216.68L1429.49 141.68z" stroke="rgba(252, 205, 24, 1)" stroke-width="2"></path><path d="M57.96 104.18 a7.5 7.5 0 1 0 15 0 a7.5 7.5 0 1 0 -15 0zM122.92 141.68 a7.5 7.5 0 1 0 15 0 a7.5 7.5 0 1 0 -15 0zM122.92 216.68 a7.5 7.5 0 1 0 15 0 a7.5 7.5 0 1 0 -15 0zM57.96 254.18 a7.5 7.5 0 1 0 15 0 a7.5 7.5 0 1 0 -15 0zM-6.99 216.68 a7.5 7.5 0 1 0 15 0 a7.5 7.5 0 1 0 -15 0zM-6.99 141.68 a7.5 7.5 0 1 0 15 0 a7.5 7.5 0 1 0 -15 0zM57.96 329.18 a7.5 7.5 0 1 0 15 0 a7.5 7.5 0 1 0 -15 0zM122.92 366.68 a7.5 7.5 0 1 0 15 0 a7.5 7.5 0 1 0 -15 0zM122.92 441.68 a7.5 7.5 0 1 0 15 0 a7.5 7.5 0 1 0 -15 0zM57.96 479.18 a7.5 7.5 0 1 0 15 0 a7.5 7.5 0 1 0 -15 0zM-6.99 441.68 a7.5 7.5 0 1 0 15 0 a7.5 7.5 0 1 0 -15 0zM-6.99 366.68 a7.5 7.5 0 1 0 15 0 a7.5 7.5 0 1 0 -15 0zM57.96 554.18 a7.5 7.5 0 1 0 15 0 a7.5 7.5 0 1 0 -15 0zM122.92 591.68 a7.5 7.5 0 1 0 15 0 a7.5 7.5 0 1 0 -15 0zM122.92 666.68 a7.5 7.5 0 1 0 15 0 a7.5 7.5 0 1 0 -15 0zM57.96 704.18 a7.5 7.5 0 1 0 15 0 a7.5 7.5 0 1 0 -15 0zM-6.99 666.68 a7.5 7.5 0 1 0 15 0 a7.5 7.5 0 1 0 -15 0zM-6.99 591.68 a7.5 7.5 0 1 0 15 0 a7.5 7.5 0 1 0 -15 0zM187.87 254.18 a7.5 7.5 0 1 0 15 0 a7.5 7.5 0 1 0 -15 0zM187.87 329.18 a7.5 7.5 0 1 0 15 0 a7.5 7.5 0 1 0 -15 0zM252.82 -8.32 a7.5 7.5 0 1 0 15 0 a7.5 7.5 0 1 0 -15 0zM317.78 29.18 a7.5 7.5 0 1 0 15 0 a7.5 7.5 0 1 0 -15 0zM317.78 104.18 a7.5 7.5 0 1 0 15 0 a7.5 7.5 0 1 0 -15 0zM252.82 141.68 a7.5 7.5 0 1 0 15 0 a7.5 7.5 0 1 0 -15 0zM187.87 104.18 a7.5 7.5 0 1 0 15 0 a7.5 7.5 0 1 0 -15 0zM187.87 29.18 a7.5 7.5 0 1 0 15 0 a7.5 7.5 0 1 0 -15 0zM317.78 329.18 a7.5 7.5 0 1 0 15 0 a7.5 7.5 0 1 0 -15 0zM382.73 366.68 a7.5 7.5 0 1 0 15 0 a7.5 7.5 0 1 0 -15 0zM382.73 441.68 a7.5 7.5 0 1 0 15 0 a7.5 7.5 0 1 0 -15 0zM317.78 479.18 a7.5 7.5 0 1 0 15 0 a7.5 7.5 0 1 0 -15 0zM252.82 441.68 a7.5 7.5 0 1 0 15 0 a7.5 7.5 0 1 0 -15 0zM252.82 366.68 a7.5 7.5 0 1 0 15 0 a7.5 7.5 0 1 0 -15 0zM447.69 104.18 a7.5 7.5 0 1 0 15 0 a7.5 7.5 0 1 0 -15 0zM512.64 141.68 a7.5 7.5 0 1 0 15 0 a7.5 7.5 0 1 0 -15 0zM512.64 216.68 a7.5 7.5 0 1 0 15 0 a7.5 7.5 0 1 0 -15 0zM447.69 254.18 a7.5 7.5 0 1 0 15 0 a7.5 7.5 0 1 0 -15 0zM382.73 216.68 a7.5 7.5 0 1 0 15 0 a7.5 7.5 0 1 0 -15 0zM382.73 141.68 a7.5 7.5 0 1 0 15 0 a7.5 7.5 0 1 0 -15 0zM447.69 329.18 a7.5 7.5 0 1 0 15 0 a7.5 7.5 0 1 0 -15 0zM512.64 366.68 a7.5 7.5 0 1 0 15 0 a7.5 7.5 0 1 0 -15 0zM512.64 441.68 a7.5 7.5 0 1 0 15 0 a7.5 7.5 0 1 0 -15 0zM447.69 479.18 a7.5 7.5 0 1 0 15 0 a7.5 7.5 0 1 0 -15 0zM512.64 -8.32 a7.5 7.5 0 1 0 15 0 a7.5 7.5 0 1 0 -15 0zM577.59 29.18 a7.5 7.5 0 1 0 15 0 a7.5 7.5 0 1 0 -15 0zM577.59 104.18 a7.5 7.5 0 1 0 15 0 a7.5 7.5 0 1 0 -15 0zM447.69 29.18 a7.5 7.5 0 1 0 15 0 a7.5 7.5 0 1 0 -15 0zM642.55 141.68 a7.5 7.5 0 1 0 15 0 a7.5 7.5 0 1 0 -15 0zM642.55 216.68 a7.5 7.5 0 1 0 15 0 a7.5 7.5 0 1 0 -15 0zM577.59 254.18 a7.5 7.5 0 1 0 15 0 a7.5 7.5 0 1 0 -15 0zM577.59 479.18 a7.5 7.5 0 1 0 15 0 a7.5 7.5 0 1 0 -15 0zM577.59 554.18 a7.5 7.5 0 1 0 15 0 a7.5 7.5 0 1 0 -15 0zM512.64 591.68 a7.5 7.5 0 1 0 15 0 a7.5 7.5 0 1 0 -15 0zM447.69 554.18 a7.5 7.5 0 1 0 15 0 a7.5 7.5 0 1 0 -15 0zM642.55 -8.32 a7.5 7.5 0 1 0 15 0 a7.5 7.5 0 1 0 -15 0zM707.5 29.18 a7.5 7.5 0 1 0 15 0 a7.5 7.5 0 1 0 -15 0zM707.5 104.18 a7.5 7.5 0 1 0 15 0 a7.5 7.5 0 1 0 -15 0zM772.45 216.68 a7.5 7.5 0 1 0 15 0 a7.5 7.5 0 1 0 -15 0zM837.41 254.18 a7.5 7.5 0 1 0 15 0 a7.5 7.5 0 1 0 -15 0zM837.41 329.18 a7.5 7.5 0 1 0 15 0 a7.5 7.5 0 1 0 -15 0zM772.45 366.68 a7.5 7.5 0 1 0 15 0 a7.5 7.5 0 1 0 -15 0zM707.5 329.18 a7.5 7.5 0 1 0 15 0 a7.5 7.5 0 1 0 -15 0zM707.5 254.18 a7.5 7.5 0 1 0 15 0 a7.5 7.5 0 1 0 -15 0zM902.36 366.68 a7.5 7.5 0 1 0 15 0 a7.5 7.5 0 1 0 -15 0zM902.36 441.68 a7.5 7.5 0 1 0 15 0 a7.5 7.5 0 1 0 -15 0zM837.41 479.18 a7.5 7.5 0 1 0 15 0 a7.5 7.5 0 1 0 -15 0zM772.45 441.68 a7.5 7.5 0 1 0 15 0 a7.5 7.5 0 1 0 -15 0zM837.41 554.18 a7.5 7.5 0 1 0 15 0 a7.5 7.5 0 1 0 -15 0zM772.45 591.68 a7.5 7.5 0 1 0 15 0 a7.5 7.5 0 1 0 -15 0zM707.5 554.18 a7.5 7.5 0 1 0 15 0 a7.5 7.5 0 1 0 -15 0zM707.5 479.18 a7.5 7.5 0 1 0 15 0 a7.5 7.5 0 1 0 -15 0zM902.36 591.68 a7.5 7.5 0 1 0 15 0 a7.5 7.5 0 1 0 -15 0zM902.36 666.68 a7.5 7.5 0 1 0 15 0 a7.5 7.5 0 1 0 -15 0zM837.41 704.18 a7.5 7.5 0 1 0 15 0 a7.5 7.5 0 1 0 -15 0zM772.45 666.68 a7.5 7.5 0 1 0 15 0 a7.5 7.5 0 1 0 -15 0zM902.36 -8.32 a7.5 7.5 0 1 0 15 0 a7.5 7.5 0 1 0 -15 0zM967.32 29.18 a7.5 7.5 0 1 0 15 0 a7.5 7.5 0 1 0 -15 0zM967.32 104.18 a7.5 7.5 0 1 0 15 0 a7.5 7.5 0 1 0 -15 0zM902.36 141.68 a7.5 7.5 0 1 0 15 0 a7.5 7.5 0 1 0 -15 0zM837.41 104.18 a7.5 7.5 0 1 0 15 0 a7.5 7.5 0 1 0 -15 0zM837.41 29.18 a7.5 7.5 0 1 0 15 0 a7.5 7.5 0 1 0 -15 0zM902.36 216.68 a7.5 7.5 0 1 0 15 0 a7.5 7.5 0 1 0 -15 0zM967.32 254.18 a7.5 7.5 0 1 0 15 0 a7.5 7.5 0 1 0 -15 0zM967.32 329.18 a7.5 7.5 0 1 0 15 0 a7.5 7.5 0 1 0 -15 0zM1032.27 366.68 a7.5 7.5 0 1 0 15 0 a7.5 7.5 0 1 0 -15 0zM1032.27 441.68 a7.5 7.5 0 1 0 15 0 a7.5 7.5 0 1 0 -15 0zM967.32 479.18 a7.5 7.5 0 1 0 15 0 a7.5 7.5 0 1 0 -15 0zM1097.22 329.18 a7.5 7.5 0 1 0 15 0 a7.5 7.5 0 1 0 -15 0zM1162.18 366.68 a7.5 7.5 0 1 0 15 0 a7.5 7.5 0 1 0 -15 0zM1162.18 441.68 a7.5 7.5 0 1 0 15 0 a7.5 7.5 0 1 0 -15 0zM1097.22 479.18 a7.5 7.5 0 1 0 15 0 a7.5 7.5 0 1 0 -15 0zM1227.13 329.18 a7.5 7.5 0 1 0 15 0 a7.5 7.5 0 1 0 -15 0zM1292.08 366.68 a7.5 7.5 0 1 0 15 0 a7.5 7.5 0 1 0 -15 0zM1292.08 441.68 a7.5 7.5 0 1 0 15 0 a7.5 7.5 0 1 0 -15 0zM1227.13 479.18 a7.5 7.5 0 1 0 15 0 a7.5 7.5 0 1 0 -15 0zM1357.04 104.18 a7.5 7.5 0 1 0 15 0 a7.5 7.5 0 1 0 -15 0zM1421.99 141.68 a7.5 7.5 0 1 0 15 0 a7.5 7.5 0 1 0 -15 0zM1421.99 216.68 a7.5 7.5 0 1 0 15 0 a7.5 7.5 0 1 0 -15 0zM1357.04 254.18 a7.5 7.5 0 1 0 15 0 a7.5 7.5 0 1 0 -15 0zM1292.09 216.68 a7.5 7.5 0 1 0 15 0 a7.5 7.5 0 1 0 -15 0zM1292.09 141.68 a7.5 7.5 0 1 0 15 0 a7.5 7.5 0 1 0 -15 0zM1357.04 329.18 a7.5 7.5 0 1 0 15 0 a7.5 7.5 0 1 0 -15 0zM1292.09 366.68 a7.5 7.5 0 1 0 15 0 a7.5 7.5 0 1 0 -15 0zM1227.13 254.18 a7.5 7.5 0 1 0 15 0 a7.5 7.5 0 1 0 -15 0zM1421.99 -8.32 a7.5 7.5 0 1 0 15 0 a7.5 7.5 0 1 0 -15 0zM1486.95 29.18 a7.5 7.5 0 1 0 15 0 a7.5 7.5 0 1 0 -15 0zM1486.95 104.18 a7.5 7.5 0 1 0 15 0 a7.5 7.5 0 1 0 -15 0zM1357.04 29.18 a7.5 7.5 0 1 0 15 0 a7.5 7.5 0 1 0 -15 0zM1551.9 141.68 a7.5 7.5 0 1 0 15 0 a7.5 7.5 0 1 0 -15 0zM1551.9 216.68 a7.5 7.5 0 1 0 15 0 a7.5 7.5 0 1 0 -15 0zM1486.95 254.18 a7.5 7.5 0 1 0 15 0 a7.5 7.5 0 1 0 -15 0z" fill="rgba(252, 205, 24, 1)"></path><path d="M20.46 -18.83L48.17 -2.83L48.17 29.17L20.46 45.17L-7.25 29.17L-7.25 -2.83zM48.17 29.17L75.89 45.17L75.89 77.17L48.17 93.17L20.46 77.17L20.46 45.17zM20.46 77.17L48.17 93.17L48.17 125.17L20.46 141.17L-7.25 125.17L-7.25 93.17zM48.17 125.17L75.89 141.17L75.89 173.17L48.17 189.17L20.46 173.17L20.46 141.17zM20.46 173.17L48.17 189.17L48.17 221.17L20.46 237.17L-7.25 221.17L-7.25 189.17zM48.17 221.17L75.89 237.17L75.89 269.17L48.17 285.17L20.46 269.17L20.46 237.17zM48.17 317.17L75.89 333.17L75.89 365.17L48.17 381.17L20.46 365.17L20.46 333.17zM103.6 29.17L131.31 45.17L131.31 77.17L103.6 93.17L75.89 77.17L75.89 45.17zM75.89 365.17L103.6 381.17L103.6 413.17L75.89 429.17L48.17 413.17L48.17 381.17zM103.6 509.17L131.31 525.17L131.31 557.17L103.6 573.17L75.89 557.17L75.89 525.17zM131.31 -18.83L159.03 -2.83L159.03 29.17L131.31 45.17L103.6 29.17L103.6 -2.83zM159.03 29.17L186.74 45.17L186.74 77.17L159.03 93.17L131.31 77.17L131.31 45.17zM159.03 125.17L186.74 141.17L186.74 173.17L159.03 189.17L131.31 173.17L131.31 141.17zM186.74 -18.83L214.46 -2.83L214.46 29.17L186.74 45.17L159.03 29.17L159.03 -2.83zM214.46 221.17L242.17 237.17L242.17 269.17L214.46 285.17L186.74 269.17L186.74 237.17zM186.74 269.17L214.46 285.17L214.46 317.17L186.74 333.17L159.03 317.17L159.03 285.17zM214.46 509.17L242.17 525.17L242.17 557.17L214.46 573.17L186.74 557.17L186.74 525.17zM269.88 29.17L297.6 45.17L297.6 77.17L269.88 93.17L242.17 77.17L242.17 45.17zM242.17 77.17L269.88 93.17L269.88 125.17L242.17 141.17L214.46 125.17L214.46 93.17zM242.17 173.17L269.88 189.17L269.88 221.17L242.17 237.17L214.46 221.17L214.46 189.17zM269.88 317.17L297.6 333.17L297.6 365.17L269.88 381.17L242.17 365.17L242.17 333.17zM269.88 413.17L297.6 429.17L297.6 461.17L269.88 477.17L242.17 461.17L242.17 429.17zM242.17 461.17L269.88 477.17L269.88 509.17L242.17 525.17L214.46 509.17L214.46 477.17zM325.31 125.17L353.02 141.17L353.02 173.17L325.31 189.17L297.6 173.17L297.6 141.17zM297.6 173.17L325.31 189.17L325.31 221.17L297.6 237.17L269.88 221.17L269.88 189.17zM325.31 317.17L353.02 333.17L353.02 365.17L325.31 381.17L297.6 365.17L297.6 333.17zM325.31 413.17L353.02 429.17L353.02 461.17L325.31 477.17L297.6 461.17L297.6 429.17zM380.74 29.17L408.45 45.17L408.45 77.17L380.74 93.17L353.02 77.17L353.02 45.17zM380.74 221.17L408.45 237.17L408.45 269.17L380.74 285.17L353.02 269.17L353.02 237.17zM436.16 221.17L463.88 237.17L463.88 269.17L436.16 285.17L408.45 269.17L408.45 237.17zM436.16 317.17L463.88 333.17L463.88 365.17L436.16 381.17L408.45 365.17L408.45 333.17zM408.45 557.17L436.16 573.17L436.16 605.17L408.45 621.17L380.74 605.17L380.74 573.17zM463.88 -18.83L491.59 -2.83L491.59 29.17L463.88 45.17L436.16 29.17L436.16 -2.83zM463.88 173.17L491.59 189.17L491.59 221.17L463.88 237.17L436.16 221.17L436.16 189.17zM463.88 557.17L491.59 573.17L491.59 605.17L463.88 621.17L436.16 605.17L436.16 573.17zM519.3 77.17L547.02 93.17L547.02 125.17L519.3 141.17L491.59 125.17L491.59 93.17zM547.02 125.17L574.73 141.17L574.73 173.17L547.02 189.17L519.3 173.17L519.3 141.17zM547.02 221.17L574.73 237.17L574.73 269.17L547.02 285.17L519.3 269.17L519.3 237.17zM547.02 317.17L574.73 333.17L574.73 365.17L547.02 381.17L519.3 365.17L519.3 333.17zM519.3 365.17L547.02 381.17L547.02 413.17L519.3 429.17L491.59 413.17L491.59 381.17zM519.3 557.17L547.02 573.17L547.02 605.17L519.3 621.17L491.59 605.17L491.59 573.17zM574.73 269.17L602.45 285.17L602.45 317.17L574.73 333.17L547.02 317.17L547.02 285.17zM602.45 509.17L630.16 525.17L630.16 557.17L602.45 573.17L574.73 557.17L574.73 525.17zM574.73 557.17L602.45 573.17L602.45 605.17L574.73 621.17L547.02 605.17L547.02 573.17zM657.87 221.17L685.59 237.17L685.59 269.17L657.87 285.17L630.16 269.17L630.16 237.17zM630.16 269.17L657.87 285.17L657.87 317.17L630.16 333.17L602.45 317.17L602.45 285.17zM657.87 413.17L685.59 429.17L685.59 461.17L657.87 477.17L630.16 461.17L630.16 429.17zM713.3 413.17L741.01 429.17L741.01 461.17L713.3 477.17L685.59 461.17L685.59 429.17zM741.01 -18.83L768.73 -2.83L768.73 29.17L741.01 45.17L713.3 29.17L713.3 -2.83zM741.01 77.17L768.73 93.17L768.73 125.17L741.01 141.17L713.3 125.17L713.3 93.17zM824.15 221.17L851.87 237.17L851.87 269.17L824.15 285.17L796.44 269.17L796.44 237.17zM796.44 461.17L824.15 477.17L824.15 509.17L796.44 525.17L768.73 509.17L768.73 477.17zM824.15 509.17L851.87 525.17L851.87 557.17L824.15 573.17L796.44 557.17L796.44 525.17zM851.87 77.17L879.58 93.17L879.58 125.17L851.87 141.17L824.15 125.17L824.15 93.17zM935.01 29.17L962.72 45.17L962.72 77.17L935.01 93.17L907.3 77.17L907.3 45.17zM907.3 77.17L935.01 93.17L935.01 125.17L907.3 141.17L879.58 125.17L879.58 93.17zM935.01 125.17L962.72 141.17L962.72 173.17L935.01 189.17L907.3 173.17L907.3 141.17zM935.01 221.17L962.72 237.17L962.72 269.17L935.01 285.17L907.3 269.17L907.3 237.17zM935.01 509.17L962.72 525.17L962.72 557.17L935.01 573.17L907.3 557.17L907.3 525.17zM907.3 557.17L935.01 573.17L935.01 605.17L907.3 621.17L879.58 605.17L879.58 573.17zM990.44 29.17L1018.15 45.17L1018.15 77.17L990.44 93.17L962.72 77.17L962.72 45.17zM962.72 173.17L990.44 189.17L990.44 221.17L962.72 237.17L935.01 221.17L935.01 189.17zM990.44 221.17L1018.15 237.17L1018.15 269.17L990.44 285.17L962.72 269.17L962.72 237.17zM962.72 461.17L990.44 477.17L990.44 509.17L962.72 525.17L935.01 509.17L935.01 477.17zM990.44 509.17L1018.15 525.17L1018.15 557.17L990.44 573.17L962.72 557.17L962.72 525.17zM1018.15 173.17L1045.86 189.17L1045.86 221.17L1018.15 237.17L990.44 221.17L990.44 189.17zM1045.86 317.17L1073.58 333.17L1073.58 365.17L1045.86 381.17L1018.15 365.17L1018.15 333.17zM1018.15 365.17L1045.86 381.17L1045.86 413.17L1018.15 429.17L990.44 413.17L990.44 381.17zM1073.58 173.17L1101.29 189.17L1101.29 221.17L1073.58 237.17L1045.86 221.17L1045.86 189.17zM1101.29 221.17L1129 237.17L1129 269.17L1101.29 285.17L1073.58 269.17L1073.58 237.17zM1073.58 365.17L1101.29 381.17L1101.29 413.17L1073.58 429.17L1045.86 413.17L1045.86 381.17zM1156.72 29.17L1184.43 45.17L1184.43 77.17L1156.72 93.17L1129 77.17L1129 45.17zM1129 77.17L1156.72 93.17L1156.72 125.17L1129 141.17L1101.29 125.17L1101.29 93.17zM1129 173.17L1156.72 189.17L1156.72 221.17L1129 237.17L1101.29 221.17L1101.29 189.17zM1156.72 221.17L1184.43 237.17L1184.43 269.17L1156.72 285.17L1129 269.17L1129 237.17zM1156.72 413.17L1184.43 429.17L1184.43 461.17L1156.72 477.17L1129 461.17L1129 429.17zM1129 557.17L1156.72 573.17L1156.72 605.17L1129 621.17L1101.29 605.17L1101.29 573.17zM1184.43 -18.83L1212.14 -2.83L1212.14 29.17L1184.43 45.17L1156.72 29.17L1156.72 -2.83zM1212.14 29.17L1239.86 45.17L1239.86 77.17L1212.14 93.17L1184.43 77.17L1184.43 45.17zM1184.43 173.17L1212.14 189.17L1212.14 221.17L1184.43 237.17L1156.72 221.17L1156.72 189.17zM1184.43 269.17L1212.14 285.17L1212.14 317.17L1184.43 333.17L1156.72 317.17L1156.72 285.17zM1184.43 365.17L1212.14 381.17L1212.14 413.17L1184.43 429.17L1156.72 413.17L1156.72 381.17zM1184.43 461.17L1212.14 477.17L1212.14 509.17L1184.43 525.17L1156.72 509.17L1156.72 477.17zM1184.43 557.17L1212.14 573.17L1212.14 605.17L1184.43 621.17L1156.72 605.17L1156.72 573.17zM1239.86 -18.83L1267.57 -2.83L1267.57 29.17L1239.86 45.17L1212.14 29.17L1212.14 -2.83zM1239.86 77.17L1267.57 93.17L1267.57 125.17L1239.86 141.17L1212.14 125.17L1212.14 93.17zM1267.57 221.17L1295.29 237.17L1295.29 269.17L1267.57 285.17L1239.86 269.17L1239.86 237.17zM1267.57 317.17L1295.29 333.17L1295.29 365.17L1267.57 381.17L1239.86 365.17L1239.86 333.17zM1267.57 413.17L1295.29 429.17L1295.29 461.17L1267.57 477.17L1239.86 461.17L1239.86 429.17zM1295.29 -18.83L1323 -2.83L1323 29.17L1295.29 45.17L1267.57 29.17L1267.57 -2.83zM1323 29.17L1350.71 45.17L1350.71 77.17L1323 93.17L1295.29 77.17L1295.29 45.17zM1295.29 77.17L1323 93.17L1323 125.17L1295.29 141.17L1267.57 125.17L1267.57 93.17zM1323 125.17L1350.71 141.17L1350.71 173.17L1323 189.17L1295.29 173.17L1295.29 141.17zM1295.29 269.17L1323 285.17L1323 317.17L1295.29 333.17L1267.57 317.17L1267.57 285.17zM1378.43 29.17L1406.14 45.17L1406.14 77.17L1378.43 93.17L1350.71 77.17L1350.71 45.17zM1378.43 317.17L1406.14 333.17L1406.14 365.17L1378.43 381.17L1350.71 365.17L1350.71 333.17zM1406.14 -18.83L1433.85 -2.83L1433.85 29.17L1406.14 45.17L1378.43 29.17L1378.43 -2.83zM1433.85 29.17L1461.57 45.17L1461.57 77.17L1433.85 93.17L1406.14 77.17L1406.14 45.17zM1433.85 125.17L1461.57 141.17L1461.57 173.17L1433.85 189.17L1406.14 173.17L1406.14 141.17zM1433.85 221.17L1461.57 237.17L1461.57 269.17L1433.85 285.17L1406.14 269.17L1406.14 237.17zM1406.14 269.17L1433.85 285.17L1433.85 317.17L1406.14 333.17L1378.43 317.17L1378.43 285.17zM1433.85 317.17L1461.57 333.17L1461.57 365.17L1433.85 381.17L1406.14 365.17L1406.14 333.17z" stroke="rgba(250, 208, 44, 1)" stroke-width="2"></path></g><defs><mask id="SvgjsMask1031"><rect width="1440" height="560" fill="#ffffff"></rect></mask></defs></svg>