<svg xmlns="http://www.w3.org/2000/svg" version="1.1" xmlns:xlink="http://www.w3.org/1999/xlink" xmlns:svgjs="http://svgjs.com/svgjs" width="1440" height="200" preserveAspectRatio="none" viewBox="0 0 1440 200"><g mask="url(&quot;#SvgjsMask1036&quot;)" fill="none"><rect width="1440" height="200" x="0" y="0" fill="rgba(95, 89, 126, 1)"></rect><path d="M0,371.093C90.743,389.205,193.908,472.461,268.056,417.103C344.171,360.277,294.309,234.78,308.403,140.843C318.081,76.338,333.337,16.478,337.928,-48.587C343.8,-131.811,386.783,-225.365,339.07,-293.806C291.8,-361.611,192.167,-364.705,110.188,-375.265C37.78,-384.592,-31.174,-363.881,-102.99,-350.752C-184.102,-335.923,-284.462,-355.593,-338.427,-293.249C-392.395,-230.902,-362.551,-134.444,-361.599,-51.99C-360.789,18.142,-360.044,87.374,-333.281,152.204C-305.791,218.797,-267.322,282.711,-207.104,322.26C-146.594,362.001,-70.994,356.923,0,371.093" fill="#4c4765"></path><path d="M1440 567.817C1513.264 561.198 1591.103 571.184 1653.183 531.719 1715.378 492.181 1746.723 421.092 1776.7060000000001 353.76800000000003 1806.444 286.994 1840.811 216.056 1825.606 144.558 1810.6770000000001 74.356 1749.666 26.00200000000001 1696.702-22.433999999999997 1648.949-66.10500000000002 1592.42-92.923 1534.459-121.69900000000001 1463.755-156.80200000000002 1398.357-216.62099999999998 1319.733-209.591 1237.552-202.243 1155.632-154.16699999999997 1112.3020000000001-83.952 1070.285-15.865000000000009 1094.856 70.769 1097.372 150.737 1099.4569999999999 216.998 1110.004 279.116 1125.752 343.512 1145.229 423.158 1133.8020000000001 524.976 1200.538 572.611 1266.862 619.952 1358.843 575.149 1440 567.817" fill="#726b97"></path></g><defs><mask id="SvgjsMask1036"><rect width="1440" height="200" fill="#ffffff"></rect></mask></defs></svg>